<?xml version="1.0" encoding="UTF-8" standalone="no"?>
<svg width="42px" height="22px" viewBox="0 0 42 22" version="1.1" xmlns="http://www.w3.org/2000/svg" xmlns:xlink="http://www.w3.org/1999/xlink" xmlns:sketch="http://www.bohemiancoding.com/sketch/ns">
    <!-- Generator: Sketch 3.3.2 (12043) - http://www.bohemiancoding.com/sketch -->
    <title>A •</title>
    <desc>Created with Sketch.</desc>
    <defs></defs>
    <g id="Welcome" stroke="none" stroke-width="1" fill="none" fill-rule="evenodd" sketch:type="MSPage">
        <g id="Desktop" sketch:type="MSArtboardGroup" transform="translate(-41.000000, -53.000000)" fill="#000000">
            <path d="M59.52,74.6 L57.57,70.07 L48.78,70.07 L46.83,74.6 L41.85,74.6 L50.91,53.63 L55.44,53.63 L64.5,74.6 L59.52,74.6 Z M53.19,59.87 L50.55,65.96 L55.8,65.96 L53.19,59.87 Z M74.67,65.09 C74.67,63.9299942 75.0749959,62.945004 75.885,62.135 C76.695004,61.3249959 77.6799942,60.92 78.84,60.92 C80.0000058,60.92 80.9849959,61.3249959 81.795,62.135 C82.605004,62.945004 83.01,63.9299942 83.01,65.09 C83.01,66.2500058 82.605004,67.2349959 81.795,68.045 C80.9849959,68.855004 80.0000058,69.26 78.84,69.26 C77.6799942,69.26 76.695004,68.855004 75.885,68.045 C75.0749959,67.2349959 74.67,66.2500058 74.67,65.09 L74.67,65.09 Z" id="A-•" sketch:type="MSShapeGroup"></path>
        </g>
    </g>
</svg>