<?xml version="1.0" encoding="UTF-8" standalone="no"?>
<svg width="90px" height="30px" viewBox="0 0 90 30" version="1.1" xmlns="http://www.w3.org/2000/svg" xmlns:xlink="http://www.w3.org/1999/xlink" xmlns:sketch="http://www.bohemiancoding.com/sketch/ns">
    <!-- Generator: Sketch 3.3.2 (12043) - http://www.bohemiancoding.com/sketch -->
    <title>rowers</title>
    <desc>Created with Sketch.</desc>
    <defs></defs>
    <g id="Page-1" stroke="none" stroke-width="1" fill="none" fill-rule="evenodd" sketch:type="MSPage">
        <g id="rowers" sketch:type="MSLayerGroup" transform="translate(-1.000000, 0.000000)" fill-opacity="0.7" fill="#EFECEA">
            <path d="M90.727,25.258 L81.181,25.258 L77.882,24.18 C76.97,23.881 75.944,24.241 75.41,25.016 L64.753,21.454 L86.035,21.454 C86.205,21.454 86.345,21.315 86.345,21.143 C86.345,20.972 86.205,20.833 86.035,20.833 L75.289,20.833 C75.803,18.974 77.693,10.314 70.018,5.515 C69.96,5.479 69.892,5.461 69.826,5.469 L67.353,5.69 L66.999,5.172 C66.938,5.084 66.843,5.043 66.744,5.042 C66.929,4.681 67.069,4.3 67.133,3.902 C67.288,2.944 67.051,2.033 66.47,1.339 C65.873,0.629 64.996,0.237 64,0.237 C63.068,0.237 62.135,0.588 61.376,1.223 C60.599,1.874 60.087,2.752 59.937,3.695 C59.783,4.653 60.02,5.564 60.601,6.258 C61.198,6.969 62.073,7.36 63.069,7.36 C63.382,7.36 63.691,7.308 63.996,7.232 C63.79,7.425 63.645,7.584 63.577,7.661 L56.083,11.528 L48.352,14.309 L46.487,14.552 C46.364,14.569 46.264,14.655 46.229,14.772 L45.875,15.972 C45.857,16.036 45.861,16.103 45.883,16.161 C45.879,16.477 46.068,16.772 46.381,16.874 L58.225,20.832 L38.07,20.832 C38.582,18.973 40.473,10.313 32.798,5.514 C32.74,5.478 32.674,5.46 32.605,5.468 L30.132,5.689 L29.778,5.171 C29.717,5.083 29.622,5.042 29.524,5.041 C29.708,4.68 29.849,4.299 29.913,3.901 C30.066,2.943 29.83,2.032 29.248,1.338 C28.653,0.628 27.777,0.236 26.78,0.236 C25.847,0.236 24.915,0.587 24.155,1.222 C23.378,1.873 22.866,2.751 22.715,3.694 C22.562,4.652 22.798,5.563 23.379,6.257 C23.975,6.968 24.851,7.359 25.847,7.359 C26.16,7.359 26.47,7.307 26.774,7.231 C26.568,7.424 26.422,7.583 26.354,7.66 L18.861,11.527 L11.13,14.308 L9.265,14.551 C9.143,14.568 9.042,14.654 9.007,14.771 L8.654,15.971 C8.635,16.035 8.64,16.102 8.662,16.16 C8.658,16.476 8.847,16.771 9.159,16.873 L21.004,20.831 L8.268,20.837 L1.23,21.853 C1.06,21.879 0.942,22.036 0.967,22.205 C0.99,22.361 1.122,22.472 1.274,22.472 C1.289,22.472 1.303,22.471 1.319,22.469 L8.312,21.455 L22.82,21.455 C22.828,21.455 22.836,21.451 22.844,21.451 L35.277,25.604 L1.901,25.604 C1.729,25.604 1.59,25.744 1.59,25.915 C1.59,26.086 1.729,26.226 1.901,26.226 L36.947,26.226 C36.989,26.226 37.028,26.216 37.065,26.201 L37.73,26.425 C37.7,27.384 38.302,28.259 39.232,28.562 L42.576,29.656 C42.796,29.727 43.026,29.763 43.255,29.763 L43.256,29.763 C44.205,29.763 45.039,29.159 45.335,28.255 L45.408,28.032 C45.613,27.405 45.509,26.752 45.191,26.226 L74.272,26.226 C74.291,26.226 74.307,26.218 74.325,26.215 L74.951,26.424 C74.923,27.383 75.522,28.258 76.453,28.561 L79.798,29.655 C80.018,29.726 80.247,29.762 80.478,29.762 L80.478,29.762 C81.426,29.762 82.26,29.158 82.557,28.254 L82.628,28.031 C82.883,27.254 82.668,26.442 82.151,25.88 L90.728,25.88 C90.898,25.88 91.038,25.74 91.038,25.569 C91.036,25.396 90.896,25.258 90.727,25.258 L90.727,25.258 Z M62.019,20.541 C62.409,19.862 62.902,18.814 62.92,17.798 L66.024,20.834 L62.971,20.834 C62.954,20.834 62.94,20.841 62.925,20.845 L62.019,20.541 L62.019,20.541 Z M58.147,19.247 L48.899,16.158 C48.978,16.086 49.073,15.994 49.207,15.846 L57.009,14.079 L58.641,13.501 C58.581,13.804 58.548,14.132 58.566,14.476 L58.147,19.247 L58.147,19.247 Z M59.186,14.489 C59.167,14.082 59.2,13.725 59.281,13.43 C59.295,13.376 59.292,13.325 59.279,13.276 L61.699,12.417 C61.703,12.419 61.706,12.422 61.71,12.424 L67.348,15.307 C67.394,15.329 67.445,15.337 67.495,15.335 C67.498,15.335 67.499,15.337 67.501,15.337 C67.515,15.339 67.849,15.396 68.058,15.698 C68.233,15.953 68.277,16.317 68.187,16.782 L66.121,20.06 L61.757,15.79 C61.638,15.672 61.445,15.672 61.325,15.788 C61.203,15.905 61.199,16.097 61.312,16.222 L62.247,17.24 C62.508,18.326 61.782,19.729 61.418,20.34 L58.756,19.449 L59.186,14.489 L59.186,14.489 Z M67.19,13.702 C67.536,14.291 67.503,14.555 67.474,14.64 C67.469,14.65 67.466,14.661 67.461,14.668 L62.481,12.122 L63.544,11.71 C64.461,11.976 66.643,12.77 67.19,13.702 L67.19,13.702 Z M66.911,20.834 L66.574,20.504 L68.741,17.065 C68.761,17.033 68.774,16.999 68.782,16.963 C68.844,16.669 68.857,16.401 68.835,16.154 L74.823,20.146 C74.751,20.457 74.686,20.692 74.644,20.834 L66.911,20.834 L66.911,20.834 Z M61.075,5.861 C60.765,5.492 60.591,5.038 60.538,4.548 C60.611,4.573 60.685,4.594 60.766,4.594 L60.781,4.594 L61.102,4.588 C61.499,4.58 61.816,4.249 61.809,3.853 C61.808,3.817 61.791,3.787 61.787,3.753 L63.372,3.72 C63.544,3.716 63.68,3.575 63.677,3.404 C63.673,3.232 63.523,3.096 63.36,3.1 L60.729,3.154 C60.939,2.606 61.295,2.104 61.777,1.703 C62.424,1.159 63.214,0.86 64.001,0.86 C64.812,0.86 65.519,1.173 65.994,1.74 C66.459,2.295 66.646,3.028 66.521,3.805 C66.393,4.6 65.958,5.344 65.294,5.9 C64.647,6.443 63.856,6.742 63.068,6.742 C62.258,6.741 61.552,6.429 61.075,5.861 L61.075,5.861 Z M66.475,5.494 C66.479,5.504 66.48,5.514 66.487,5.522 L66.649,5.76 C66.5,5.786 66.349,5.821 66.205,5.864 C66.306,5.747 66.387,5.62 66.475,5.494 L66.475,5.494 Z M46.766,15.142 L48.464,14.92 C48.486,14.918 48.508,14.913 48.529,14.905 L56.329,12.096 L63.913,8.187 C63.949,8.167 63.981,8.141 64.008,8.11 C64.015,8.102 64.306,7.76 64.773,7.379 C64.789,7.382 64.805,7.39 64.822,7.392 C64.877,7.394 70.173,7.657 70.659,10.589 C70.659,10.6 70.638,11.636 69.864,12.27 C69.255,12.768 68.335,12.905 67.127,12.674 C67.106,12.67 67.088,12.674 67.068,12.674 C65.845,11.708 63.721,11.114 63.613,11.084 C63.549,11.066 63.48,11.07 63.417,11.094 L61.72,11.751 L56.837,13.484 L48.975,15.262 C48.912,15.276 48.854,15.311 48.811,15.36 C48.601,15.597 48.493,15.692 48.393,15.78 C48.338,15.825 48.287,15.874 48.226,15.931 L47.679,15.748 C47.646,15.457 47.489,15.324 47.386,15.274 C47.19,15.181 46.947,15.228 46.711,15.336 L46.766,15.142 L46.766,15.142 Z M29.691,20.834 L29.355,20.504 L31.522,17.065 C31.542,17.033 31.554,16.999 31.563,16.963 C31.626,16.669 31.638,16.401 31.617,16.154 L37.604,20.146 C37.531,20.457 37.467,20.692 37.426,20.834 L29.691,20.834 L29.691,20.834 Z M25.719,20.849 L24.798,20.541 C25.189,19.862 25.681,18.814 25.699,17.798 L28.803,20.834 L25.791,20.834 C25.766,20.834 25.743,20.842 25.719,20.849 L25.719,20.849 Z M20.929,19.247 L11.679,16.158 C11.758,16.086 11.852,15.994 11.987,15.846 L19.788,14.079 L21.42,13.501 C21.361,13.804 21.328,14.132 21.346,14.476 L20.929,19.247 L20.929,19.247 Z M21.965,14.489 C21.947,14.082 21.98,13.725 22.061,13.43 C22.075,13.376 22.071,13.325 22.059,13.276 L24.479,12.417 C24.481,12.419 24.485,12.422 24.488,12.424 L30.127,15.307 C30.172,15.329 30.224,15.337 30.274,15.335 C30.275,15.335 30.277,15.337 30.279,15.337 C30.294,15.339 30.628,15.396 30.836,15.698 C31.011,15.953 31.054,16.317 30.964,16.782 L28.898,20.06 L24.534,15.79 C24.415,15.672 24.223,15.672 24.102,15.788 C23.981,15.905 23.975,16.097 24.09,16.222 L25.024,17.24 C25.285,18.326 24.559,19.729 24.195,20.34 L21.532,19.449 L21.965,14.489 L21.965,14.489 Z M29.971,13.702 C30.317,14.291 30.284,14.555 30.255,14.64 C30.252,14.65 30.248,14.661 30.243,14.668 L25.264,12.122 L26.326,11.71 C27.242,11.976 29.422,12.77 29.971,13.702 L29.971,13.702 Z M23.856,5.861 C23.545,5.492 23.372,5.038 23.319,4.548 C23.391,4.573 23.465,4.594 23.545,4.594 L23.56,4.594 L23.881,4.588 C24.278,4.58 24.596,4.249 24.588,3.853 C24.586,3.817 24.571,3.787 24.567,3.753 L26.152,3.72 C26.323,3.716 26.46,3.575 26.456,3.404 C26.454,3.232 26.3,3.096 26.139,3.1 L23.509,3.154 C23.72,2.606 24.075,2.104 24.556,1.703 C25.204,1.159 25.993,0.86 26.781,0.86 C27.592,0.86 28.298,1.173 28.773,1.74 C29.238,2.295 29.426,3.028 29.3,3.805 C29.173,4.6 28.738,5.344 28.075,5.9 C27.426,6.443 26.636,6.742 25.848,6.742 C25.039,6.741 24.332,6.429 23.856,5.861 L23.856,5.861 Z M29.254,5.494 C29.258,5.504 29.259,5.514 29.266,5.522 L29.428,5.76 C29.278,5.786 29.131,5.821 28.985,5.864 C29.085,5.747 29.167,5.62 29.254,5.494 L29.254,5.494 Z M9.546,15.142 L11.243,14.92 C11.266,14.918 11.287,14.913 11.308,14.905 L19.108,12.096 L26.692,8.187 C26.729,8.167 26.76,8.141 26.787,8.11 C26.793,8.102 27.086,7.76 27.551,7.379 C27.568,7.382 27.584,7.39 27.601,7.392 C27.654,7.394 32.952,7.657 33.437,10.589 C33.437,10.6 33.418,11.636 32.643,12.27 C32.033,12.768 31.114,12.905 29.905,12.674 C29.885,12.67 29.865,12.674 29.846,12.674 C28.624,11.708 26.499,11.114 26.39,11.084 C26.326,11.066 26.257,11.07 26.196,11.094 L24.497,11.751 L19.615,13.484 L11.752,15.262 C11.689,15.276 11.631,15.311 11.589,15.36 C11.379,15.597 11.27,15.692 11.17,15.78 C11.117,15.825 11.064,15.874 11.003,15.931 L10.456,15.748 C10.423,15.457 10.267,15.324 10.164,15.274 C9.968,15.181 9.726,15.228 9.488,15.336 L9.546,15.142 L9.546,15.142 Z M44.792,25.604 C44.747,25.604 44.704,25.616 44.666,25.631 C44.473,25.481 44.255,25.353 44.009,25.273 L40.664,24.18 C39.75,23.881 38.725,24.241 38.192,25.016 L27.533,21.454 L60.079,21.454 L72.498,25.603 L44.792,25.603 L44.792,25.604 Z" id="Shape" sketch:type="MSShapeGroup"></path>
        </g>
    </g>
</svg>